<svg width="31" height="16" viewBox="0 0 31 16" fill="none" xmlns="http://www.w3.org/2000/svg">
<path d="M30.7133 0.319946L29.7656 2.04495H27.3052L22.874 12.3949H5.98755L0.101074 2.90745H21.545L20.8256 4.63245H3.93781L7.68398 10.6699H20.985L25.3626 0.319946H30.7133ZM10.9429 13.2574C9.88679 13.2574 9.02965 13.837 9.02965 14.5512C9.02965 15.2662 9.88679 15.8449 10.9429 15.8449C11.999 15.8449 12.8562 15.2662 12.8562 14.5512C12.8562 13.837 11.999 13.2574 10.9429 13.2574ZM19.7439 7.21995L17.3205 13.2574C16.2643 13.2574 15.4072 13.8362 15.4072 14.5512C15.4072 15.2662 16.2643 15.8449 17.3205 15.8449C18.3766 15.8449 19.2337 15.2662 19.2337 14.5512C19.2337 13.837 18.3766 13.2574 17.3205 13.2574L19.7439 7.21995Z" fill="#2F3035"/>
</svg>
